REM DIRINDEX 1\2\4,1\2\5,1\3\6,1\3\7
REM DIRNAME folder01,folder02,folder03,folder04,folder05,folder06,folder07
TITLE ""
FILE "bunpo2_06.mp3" MP3
  TRACK 01 AUDIO
    TITLE "7:cjc099_472"
    INDEX 01 00:00:00
  TRACK 02 AUDIO
    TITLE "0:"
    INDEX 01 00:01:46
  TRACK 03 AUDIO
    TITLE "7:cjc099_473"
    INDEX 01 00:02:18
  TRACK 04 AUDIO
    TITLE "0:"
    INDEX 01 00:03:41
  TRACK 05 AUDIO
    TITLE "6:cjc099_474"
    INDEX 01 00:03:59
  TRACK 06 AUDIO
    TITLE "0:"
    INDEX 01 00:11:03
  TRACK 07 AUDIO
    TITLE "5:cjc099_475"
    INDEX 01 00:11:50
  TRACK 08 AUDIO
    TITLE "0:"
    INDEX 01 00:12:73
  TRACK 09 AUDIO
    TITLE "4:cjc099_476"
    INDEX 01 00:13:22
  TRACK 10 AUDIO
    TITLE "0:"
    INDEX 01 00:20:43
  TRACK 11 AUDIO
    TITLE "7:cjc099_477"
    INDEX 01 00:22:13
  TRACK 12 AUDIO
    TITLE "0:"
    INDEX 01 00:23:30
  TRACK 13 AUDIO
    TITLE "6:cjc099_478"
    INDEX 01 00:23:51
  TRACK 14 AUDIO
    TITLE "0:"
    INDEX 01 00:31:20
  TRACK 15 AUDIO
    TITLE "5:cjc099_479"
    INDEX 01 00:31:69
  TRACK 16 AUDIO
    TITLE "0:"
    INDEX 01 00:33:09
  TRACK 17 AUDIO
    TITLE "4:cjc099_480"
    INDEX 01 00:33:34
  TRACK 18 AUDIO
    TITLE "0:"
    INDEX 01 00:40:56
  TRACK 19 AUDIO
    TITLE "7:cjc099_481"
    INDEX 01 00:42:23
  TRACK 20 AUDIO
    TITLE "0:"
    INDEX 01 00:43:44
  TRACK 21 AUDIO
    TITLE "6:cjc099_482"
    INDEX 01 00:43:64
  TRACK 22 AUDIO
    TITLE "0:"
    INDEX 01 00:49:33
  TRACK 23 AUDIO
    TITLE "5:cjc099_483"
    INDEX 01 00:50:03
  TRACK 24 AUDIO
    TITLE "0:"
    INDEX 01 00:51:26
  TRACK 25 AUDIO
    TITLE "4:cjc099_484"
    INDEX 01 00:51:50
  TRACK 26 AUDIO
    TITLE "0:"
    INDEX 01 00:57:35
  TRACK 27 AUDIO
    TITLE "7:cjc099_485"
    INDEX 01 00:59:06
  TRACK 28 AUDIO
    TITLE "0:"
    INDEX 01 01:00:27
  TRACK 29 AUDIO
    TITLE "6:cjc099_486"
    INDEX 01 01:00:47
  TRACK 30 AUDIO
    TITLE "0:"
    INDEX 01 01:07:02
  TRACK 31 AUDIO
    TITLE "5:cjc099_487"
    INDEX 01 01:07:51
  TRACK 32 AUDIO
    TITLE "0:"
    INDEX 01 01:08:70
  TRACK 33 AUDIO
    TITLE "4:cjc099_488"
    INDEX 01 01:09:16
  TRACK 34 AUDIO
    TITLE "0:"
    INDEX 01 01:15:42
  TRACK 35 AUDIO
    TITLE "7:cjc099_489"
    INDEX 01 01:17:12
  TRACK 36 AUDIO
    TITLE "0:"
    INDEX 01 01:18:39
  TRACK 37 AUDIO
    TITLE "6:cjc099_490"
    INDEX 01 01:18:58
  TRACK 38 AUDIO
    TITLE "0:"
    INDEX 01 01:24:53
  TRACK 39 AUDIO
    TITLE "5:cjc099_491"
    INDEX 01 01:25:21
  TRACK 40 AUDIO
    TITLE "0:"
    INDEX 01 01:26:44
  TRACK 41 AUDIO
    TITLE "4:cjc099_492"
    INDEX 01 01:26:66
  TRACK 42 AUDIO
    TITLE "0:"
    INDEX 01 01:33:25
  TRACK 43 AUDIO
    TITLE "7:cjc099_493"
    INDEX 01 01:34:73
  TRACK 44 AUDIO
    TITLE "0:"
    INDEX 01 01:36:21
  TRACK 45 AUDIO
    TITLE "6:cjc099_494"
    INDEX 01 01:36:45
  TRACK 46 AUDIO
    TITLE "0:"
    INDEX 01 01:41:38
  TRACK 47 AUDIO
    TITLE "5:cjc099_495"
    INDEX 01 01:42:16
  TRACK 48 AUDIO
    TITLE "0:"
    INDEX 01 01:43:52
  TRACK 49 AUDIO
    TITLE "4:cjc099_496"
    INDEX 01 01:43:74
  TRACK 50 AUDIO
    TITLE "0:"
    INDEX 01 01:49:08
  TRACK 51 AUDIO
    TITLE "7:cjc099_497"
    INDEX 01 01:50:53
  TRACK 52 AUDIO
    TITLE "0:"
    INDEX 01 01:52:08
  TRACK 53 AUDIO
    TITLE "6:cjc099_498"
    INDEX 01 01:52:28
  TRACK 54 AUDIO
    TITLE "0:"
    INDEX 01 01:58:27
  TRACK 55 AUDIO
    TITLE "5:cjc099_499"
    INDEX 01 01:58:72
  TRACK 56 AUDIO
    TITLE "0:"
    INDEX 01 02:00:10
  TRACK 57 AUDIO
    TITLE "4:cjc099_500"
    INDEX 01 02:00:27
  TRACK 58 AUDIO
    TITLE "0:"
    INDEX 01 02:06:30
  TRACK 59 AUDIO
    TITLE "7:cjc099_501"
    INDEX 01 02:07:71
  TRACK 60 AUDIO
    TITLE "0:"
    INDEX 01 02:09:11
  TRACK 61 AUDIO
    TITLE "6:cjc099_502"
    INDEX 01 02:09:34
  TRACK 62 AUDIO
    TITLE "0:"
    INDEX 01 02:16:05
  TRACK 63 AUDIO
    TITLE "5:cjc099_503"
    INDEX 01 02:16:52
  TRACK 64 AUDIO
    TITLE "0:"
    INDEX 01 02:17:67
  TRACK 65 AUDIO
    TITLE "4:cjc099_504"
    INDEX 01 02:18:04
  TRACK 66 AUDIO
    TITLE "0:"
    INDEX 01 02:24:57
  TRACK 67 AUDIO
    TITLE "7:cjc099_505"
    INDEX 01 02:26:29
  TRACK 68 AUDIO
    TITLE "0:"
    INDEX 01 02:27:48
  TRACK 69 AUDIO
    TITLE "6:cjc099_506"
    INDEX 01 02:27:65
  TRACK 70 AUDIO
    TITLE "0:"
    INDEX 01 02:35:55
  TRACK 71 AUDIO
    TITLE "5:cjc099_507"
    INDEX 01 02:36:25
  TRACK 72 AUDIO
    TITLE "0:"
    INDEX 01 02:37:46
  TRACK 73 AUDIO
    TITLE "4:cjc099_508"
    INDEX 01 02:37:66
  TRACK 74 AUDIO
    TITLE "0:"
    INDEX 01 02:45:44
  TRACK 75 AUDIO
    TITLE "7:cjc099_509"
    INDEX 01 02:47:15
  TRACK 76 AUDIO
    TITLE "0:"
    INDEX 01 02:48:40
  TRACK 77 AUDIO
    TITLE "6:cjc099_510"
    INDEX 01 02:48:56
  TRACK 78 AUDIO
    TITLE "0:"
    INDEX 01 02:58:21
  TRACK 79 AUDIO
    TITLE "5:cjc099_511"
    INDEX 01 02:58:68
  TRACK 80 AUDIO
    TITLE "0:"
    INDEX 01 03:00:16
  TRACK 81 AUDIO
    TITLE "4:cjc099_512"
    INDEX 01 03:00:39
  TRACK 82 AUDIO
    TITLE "0:"
    INDEX 01 03:09:50
  TRACK 83 AUDIO
    TITLE "7:cjc099_513"
    INDEX 01 03:11:22
  TRACK 84 AUDIO
    TITLE "0:"
    INDEX 01 03:12:58
  TRACK 85 AUDIO
    TITLE "6:cjc099_514"
    INDEX 01 03:13:03
  TRACK 86 AUDIO
    TITLE "0:"
    INDEX 01 03:18:26
  TRACK 87 AUDIO
    TITLE "5:cjc099_515"
    INDEX 01 03:18:71
  TRACK 88 AUDIO
    TITLE "0:"
    INDEX 01 03:20:24
  TRACK 89 AUDIO
    TITLE "4:cjc099_516"
    INDEX 01 03:20:48
  TRACK 90 AUDIO
    TITLE "0:"
    INDEX 01 03:25:61
  TRACK 91 AUDIO
    TITLE "7:cjc099_517"
    INDEX 01 03:27:30
  TRACK 92 AUDIO
    TITLE "0:"
    INDEX 01 03:28:65
  TRACK 93 AUDIO
    TITLE "6:cjc099_518"
    INDEX 01 03:29:08
  TRACK 94 AUDIO
    TITLE "0:"
    INDEX 01 03:36:06
  TRACK 95 AUDIO
    TITLE "5:cjc099_519"
    INDEX 01 03:36:53
  TRACK 96 AUDIO
    TITLE "0:"
    INDEX 01 03:38:13
  TRACK 97 AUDIO
    TITLE "4:cjc099_520"
    INDEX 01 03:38:28
  TRACK 98 AUDIO
    TITLE "0:"
    INDEX 01 03:45:17
  TRACK 99 AUDIO
    TITLE "7:cjc099_521"
    INDEX 01 03:46:61
  TRACK 100 AUDIO
    TITLE "0:"
    INDEX 01 03:48:25
  TRACK 101 AUDIO
    TITLE "6:cjc099_522"
    INDEX 01 03:48:48
  TRACK 102 AUDIO
    TITLE "0:"
    INDEX 01 03:56:12
  TRACK 103 AUDIO
    TITLE "5:cjc099_523"
    INDEX 01 03:56:60
  TRACK 104 AUDIO
    TITLE "0:"
    INDEX 01 03:58:19
  TRACK 105 AUDIO
    TITLE "4:cjc099_524"
    INDEX 01 03:58:39
  TRACK 106 AUDIO
    TITLE "0:"
    INDEX 01 04:05:66
  TRACK 107 AUDIO
    TITLE "7:cjc099_525"
    INDEX 01 04:07:38
  TRACK 108 AUDIO
    TITLE "0:"
    INDEX 01 04:08:74
  TRACK 109 AUDIO
    TITLE "6:cjc099_526"
    INDEX 01 04:09:21
  TRACK 110 AUDIO
    TITLE "0:"
    INDEX 01 04:16:50
  TRACK 111 AUDIO
    TITLE "5:cjc099_527"
    INDEX 01 04:17:15
  TRACK 112 AUDIO
    TITLE "0:"
    INDEX 01 04:18:61
  TRACK 113 AUDIO
    TITLE "4:cjc099_528"
    INDEX 01 04:19:00
  TRACK 114 AUDIO
    TITLE "0:"
    INDEX 01 04:25:53
  TRACK 115 AUDIO
    TITLE "7:cjc099_529"
    INDEX 01 04:27:25
  TRACK 116 AUDIO
    TITLE "0:"
    INDEX 01 04:28:61
  TRACK 117 AUDIO
    TITLE "6:cjc099_530"
    INDEX 01 04:29:06
  TRACK 118 AUDIO
    TITLE "0:"
    INDEX 01 04:36:73
  TRACK 119 AUDIO
    TITLE "5:cjc099_531"
    INDEX 01 04:37:43
  TRACK 120 AUDIO
    TITLE "0:"
    INDEX 01 04:39:04
  TRACK 121 AUDIO
    TITLE "4:cjc099_532"
    INDEX 01 04:39:20
  TRACK 122 AUDIO
    TITLE "0:"
    INDEX 01 04:47:08
  TRACK 123 AUDIO
    TITLE "7:cjc099_533"
    INDEX 01 04:48:54
  TRACK 124 AUDIO
    TITLE "0:"
    INDEX 01 04:50:20
  TRACK 125 AUDIO
    TITLE "6:cjc099_534"
    INDEX 01 04:50:42
  TRACK 126 AUDIO
    TITLE "0:"
    INDEX 01 04:56:34
  TRACK 127 AUDIO
    TITLE "5:cjc099_535"
    INDEX 01 04:57:02
  TRACK 128 AUDIO
    TITLE "0:"
    INDEX 01 04:58:43
  TRACK 129 AUDIO
    TITLE "4:cjc099_536"
    INDEX 01 04:58:59
  TRACK 130 AUDIO
    TITLE "0:"
    INDEX 01 05:04:40
  TRACK 131 AUDIO
    TITLE "7:cjc099_537"
    INDEX 01 05:06:05
  TRACK 132 AUDIO
    TITLE "0:"
    INDEX 01 05:07:48
  TRACK 133 AUDIO
    TITLE "6:cjc099_538"
    INDEX 01 05:07:67
  TRACK 134 AUDIO
    TITLE "0:"
    INDEX 01 05:12:71
  TRACK 135 AUDIO
    TITLE "5:cjc099_539"
    INDEX 01 05:13:41
  TRACK 136 AUDIO
    TITLE "0:"
    INDEX 01 05:15:12
  TRACK 137 AUDIO
    TITLE "4:cjc099_540"
    INDEX 01 05:15:26
  TRACK 138 AUDIO
    TITLE "0:"
    INDEX 01 05:20:23
  TRACK 139 AUDIO
    TITLE "7:cjc099_541"
    INDEX 01 05:21:66
  TRACK 140 AUDIO
    TITLE "0:"
    INDEX 01 05:23:27
  TRACK 141 AUDIO
    TITLE "6:cjc099_542"
    INDEX 01 05:23:49
  TRACK 142 AUDIO
    TITLE "0:"
    INDEX 01 05:31:35
  TRACK 143 AUDIO
    TITLE "5:cjc099_543"
    INDEX 01 05:32:01
  TRACK 144 AUDIO
    TITLE "0:"
    INDEX 01 05:33:45
  TRACK 145 AUDIO
    TITLE "4:cjc099_544"
    INDEX 01 05:33:67
  TRACK 146 AUDIO
    TITLE "0:"
    INDEX 01 05:41:08
  TRACK 147 AUDIO
    TITLE "7:cjc099_545"
    INDEX 01 05:42:54
  TRACK 148 AUDIO
    TITLE "0:"
    INDEX 01 05:44:18
  TRACK 149 AUDIO
    TITLE "6:cjc099_546"
    INDEX 01 05:44:33
  TRACK 150 AUDIO
    TITLE "0:"
    INDEX 01 05:52:33
  TRACK 151 AUDIO
    TITLE "5:cjc099_547"
    INDEX 01 05:53:01
  TRACK 152 AUDIO
    TITLE "0:"
    INDEX 01 05:54:42
  TRACK 153 AUDIO
    TITLE "4:cjc099_548"
    INDEX 01 05:54:59
  TRACK 154 AUDIO
    TITLE "0:"
    INDEX 01 06:02:08
  TRACK 155 AUDIO
    TITLE "7:cjc099_549"
    INDEX 01 06:03:48
  TRACK 156 AUDIO
    TITLE "0:"
    INDEX 01 06:05:00
  TRACK 157 AUDIO
    TITLE "6:cjc099_550"
    INDEX 01 06:05:16
  TRACK 158 AUDIO
    TITLE "0:"
    INDEX 01 06:12:10
  TRACK 159 AUDIO
    TITLE "5:cjc099_551"
    INDEX 01 06:12:55
  TRACK 160 AUDIO
    TITLE "0:"
    INDEX 01 06:14:03
  TRACK 161 AUDIO
    TITLE "4:cjc099_552"
    INDEX 01 06:14:25
  TRACK 162 AUDIO
    TITLE "0:"
    INDEX 01 06:21:31
  TRACK 163 AUDIO
    TITLE "7:cjc099_553"
    INDEX 01 06:23:00
  TRACK 164 AUDIO
    TITLE "0:"
    INDEX 01 06:24:37
  TRACK 165 AUDIO
    TITLE "6:cjc099_554"
    INDEX 01 06:24:58
  TRACK 166 AUDIO
    TITLE "0:"
    INDEX 01 06:31:74
  TRACK 167 AUDIO
    TITLE "5:cjc099_555"
    INDEX 01 06:32:42
  TRACK 168 AUDIO
    TITLE "0:"
    INDEX 01 06:34:14
  TRACK 169 AUDIO
    TITLE "4:cjc099_556"
    INDEX 01 06:34:31
  TRACK 170 AUDIO
    TITLE "0:"
    INDEX 01 06:41:23
  TRACK 171 AUDIO
    TITLE "7:cjc099_557"
    INDEX 01 06:42:72
  TRACK 172 AUDIO
    TITLE "0:"
    INDEX 01 06:44:47
  TRACK 173 AUDIO
    TITLE "6:cjc099_558"
    INDEX 01 06:44:71
  TRACK 174 AUDIO
    TITLE "0:"
    INDEX 01 06:52:12
  TRACK 175 AUDIO
    TITLE "5:cjc099_559"
    INDEX 01 06:52:57
  TRACK 176 AUDIO
    TITLE "0:"
    INDEX 01 06:54:28
  TRACK 177 AUDIO
    TITLE "4:cjc099_560"
    INDEX 01 06:54:50
  TRACK 178 AUDIO
    TITLE "0:"
    INDEX 01 07:01:52
  TRACK 179 AUDIO
    TITLE "7:cjc099_561"
    INDEX 01 07:03:17
  TRACK 180 AUDIO
    TITLE "0:"
    INDEX 01 07:04:62
  TRACK 181 AUDIO
    TITLE "6:cjc099_562"
    INDEX 01 07:05:02
  TRACK 182 AUDIO
    TITLE "0:"
    INDEX 01 07:12:12
  TRACK 183 AUDIO
    TITLE "5:cjc099_563"
    INDEX 01 07:12:51
  TRACK 184 AUDIO
    TITLE "0:"
    INDEX 01 07:14:19
  TRACK 185 AUDIO
    TITLE "4:cjc099_564"
    INDEX 01 07:14:39
  TRACK 186 AUDIO
    TITLE "0:"
    INDEX 01 07:21:62
  TRACK 187 AUDIO
    TITLE "7:cjc099_565"
    INDEX 01 07:23:30
  TRACK 188 AUDIO
    TITLE "0:"
    INDEX 01 07:24:74
  TRACK 189 AUDIO
    TITLE "6:cjc099_566"
    INDEX 01 07:25:19
  TRACK 190 AUDIO
    TITLE "0:"
    INDEX 01 07:32:07
  TRACK 191 AUDIO
    TITLE "5:cjc099_567"
    INDEX 01 07:32:48
  TRACK 192 AUDIO
    TITLE "0:"
    INDEX 01 07:34:22
  TRACK 193 AUDIO
    TITLE "4:cjc099_568"
    INDEX 01 07:34:37
  TRACK 194 AUDIO
    TITLE "0:"
    INDEX 01 07:41:20
